<?xml version="1.0" encoding="UTF-8" standalone="no"?>
<!DOCTYPE svg PUBLIC "-//W3C//DTD SVG 1.1//EN" "http://www.w3.org/Graphics/SVG/1.1/DTD/svg11.dtd">
<svg width="100%" height="100%" viewBox="0 0 160 160" version="1.1" xmlns="http://www.w3.org/2000/svg" xmlns:xlink="http://www.w3.org/1999/xlink" xml:space="preserve" xmlns:serif="http://www.serif.com/" style="fill-rule:evenodd;clip-rule:evenodd;stroke-linejoin:round;stroke-miterlimit:2;">
    <g transform="matrix(1,0,0,1,-2745,-228)">
        <rect id="Artboard2" x="2745" y="228" width="160" height="160" style="fill:none;"/>
        <g id="Artboard21" serif:id="Artboard2">
            <circle cx="2825" cy="308" r="80" style="fill:url(#_Radial1);"/>
            <path d="M2825,228C2869.15,228 2905,263.847 2905,308C2905,352.153 2869.15,388 2825,388C2780.85,388 2745,352.153 2745,308C2745,263.847 2780.85,228 2825,228ZM2825,232.123C2783.12,232.123 2749.12,266.122 2749.12,308C2749.12,349.878 2783.12,383.877 2825,383.877C2866.88,383.877 2900.88,349.878 2900.88,308C2900.88,266.122 2866.88,232.123 2825,232.123Z"/>
        </g>
    </g>
    <defs>
        <radialGradient id="_Radial1" cx="0" cy="0" r="1" gradientUnits="userSpaceOnUse" gradientTransform="matrix(160,0,0,160,2745,308)"><stop offset="0" style="stop-color:white;stop-opacity:1"/><stop offset="1" style="stop-color:rgb(136,237,255);stop-opacity:1"/></radialGradient>
    </defs>
</svg>
